<?xml version="1.0" encoding="utf-8"?>
<!-- Generator: Adobe Illustrator 24.3.0, SVG Export Plug-In . SVG Version: 6.00 Build 0)  -->
<svg version="1.1" id="Layer_1" xmlns="http://www.w3.org/2000/svg" xmlns:xlink="http://www.w3.org/1999/xlink" x="0px" y="0px"
	 viewBox="0 0 170 72" style="enable-background:new 0 0 170 72;" xml:space="preserve">
<style type="text/css">
	.st0{fill-rule:evenodd;clip-rule:evenodd;fill:#FFFFFF;}
</style>
<g id="Page-1">
	<g id="CR_Landing_Mobile" transform="translate(-37.000000, -32.000000)">
		<g id="Group-21" transform="translate(37.000000, 32.000000)">
			<g id="Group-3">
				<g id="Clip-2">
				</g>
				<path id="Fill-1" class="st0" d="M46,58.1c-1,0-1.8-0.8-1.8-1.8s0.8-1.8,1.8-1.8s1.8,0.8,1.8,1.8S47,58.1,46,58.1 M14,41.7
					c-1,0-1.8-0.8-1.8-1.8s0.8-1.8,1.8-1.8s1.8,0.8,1.8,1.8S15,41.7,14,41.7 M33.8,29.9c-1,0-1.8-0.8-1.8-1.8s0.8-1.8,1.8-1.8
					s1.8,0.8,1.8,1.8S34.8,29.9,33.8,29.9 M66.3,52c-0.4-0.3-0.9-0.3-1.4-0.2s-0.9,0.4-1.1,0.8c-6,9.8-16.3,15.7-27.8,15.7
					C18.2,68.3,3.7,53.8,3.7,36c0-6.4,1.9-12.5,5.4-17.8H39c4.8,0,8.9,3.4,9.8,8.1H39c-0.8-2.2-2.8-3.6-5.2-3.6
					c-3,0-5.5,2.5-5.5,5.5s2.5,5.5,5.5,5.5c2.3,0,4.4-1.5,5.2-3.6h9.7c-0.9,4.6-5,8.1-9.8,8.1H19.1c-0.8-2.2-2.8-3.6-5.2-3.6
					c-3,0-5.5,2.5-5.5,5.5s2.5,5.5,5.5,5.5c2.3,0,4.4-1.5,5.2-3.6h14.4l8,11.5c-0.7,0.9-1,2-1,3.2c0,3,2.5,5.5,5.5,5.5
					s5.5-2.5,5.5-5.5S49,51.2,46,51.2c-0.5,0-1,0.1-1.4,0.2l-6.5-9.3H39c7.5,0,13.6-6.1,13.6-13.6s-6.1-14-13.6-14H12
					C18.1,7.6,26.8,3.7,36,3.7c10.5,0,20.4,5.1,26.4,13.7c0.6,0.8,1.7,1,2.6,0.4c0.4-0.3,0.7-0.7,0.8-1.2c0.1-0.5,0-1-0.3-1.4
					C58.7,5.7,47.7,0,36,0C16.2,0,0,16.1,0,36s16.2,36,36,36c6.3,0,12.6-1.7,18-4.8c5.3-3.1,9.7-7.4,12.9-12.7
					C67.4,53.6,67.2,52.5,66.3,52"/>
			</g>
			<path id="Fill-4" class="st0" d="M75.9,24.6c0-1,0.2-1.9,0.5-2.7c0.3-0.8,0.8-1.6,1.4-2.2s1.3-1.1,2.1-1.5
				c0.8-0.4,1.8-0.6,2.9-0.6c0.7,0,1.4,0.1,1.9,0.2c0.6,0.1,1.2,0.3,1.7,0.5l-0.8,3c-0.4-0.1-0.7-0.3-1.2-0.4
				c-0.4-0.1-0.9-0.2-1.4-0.2c-1.1,0-1.9,0.3-2.5,1c-0.5,0.7-0.8,1.6-0.8,2.7c0,1.2,0.3,2.1,0.8,2.8c0.5,0.7,1.4,1,2.7,1
				c0.5,0,0.9,0,1.5-0.1c0.5-0.1,1-0.2,1.4-0.4l0.5,3.1c-0.4,0.2-1,0.3-1.6,0.5c-0.7,0.1-1.4,0.2-2.2,0.2c-1.2,0-2.3-0.2-3.1-0.5
				c-0.9-0.4-1.6-0.9-2.2-1.5s-1-1.4-1.2-2.2C76,26.5,75.9,25.6,75.9,24.6"/>
			<path id="Fill-6" class="st0" d="M88.9,31.2v-19l3.8-0.6V18c0.3-0.1,0.6-0.2,1-0.2c0.4-0.1,0.8-0.1,1.1-0.1c1.1,0,2,0.1,2.7,0.4
				s1.3,0.7,1.7,1.2c0.4,0.5,0.7,1.2,0.9,1.9c0.2,0.7,0.3,1.6,0.3,2.5v7.5h-3.8v-7c0-1.2-0.2-2.1-0.5-2.6s-0.9-0.8-1.7-0.8
				c-0.3,0-0.7,0-0.9,0.1c-0.3,0.1-0.6,0.1-0.8,0.2v10.1H88.9z"/>
			<path id="Fill-8" class="st0" d="M108.6,28.6c0.4,0,0.7,0,1.1,0c0.3,0,0.6,0,0.8-0.1v-2.9c-0.2,0-0.4-0.1-0.7-0.1
				c-0.3,0-0.6-0.1-0.8-0.1c-0.4,0-0.7,0-1,0.1c-0.3,0-0.6,0.1-0.8,0.2c-0.2,0.1-0.4,0.3-0.6,0.5c-0.1,0.2-0.2,0.5-0.2,0.8
				c0,0.6,0.2,1,0.6,1.2C107.3,28.5,107.9,28.6,108.6,28.6 M108.3,17.6c1.1,0,2,0.1,2.8,0.4c0.7,0.3,1.3,0.6,1.8,1.1
				c0.4,0.5,0.8,1,0.9,1.7c0.2,0.7,0.3,1.4,0.3,2.2v7.8c-0.5,0.1-1.3,0.3-2.2,0.4s-2.1,0.2-3.5,0.2c-0.9,0-1.6-0.1-2.3-0.2
				c-0.7-0.2-1.3-0.4-1.8-0.7c-0.5-0.3-0.9-0.8-1.2-1.3c-0.3-0.6-0.4-1.2-0.4-2s0.2-1.4,0.5-2c0.3-0.5,0.7-1,1.2-1.3
				s1.1-0.6,1.8-0.7c0.7-0.1,1.4-0.2,2.1-0.2c0.5,0,0.9,0,1.3,0.1c0.4,0,0.7,0.1,0.9,0.2v-0.4c0-0.6-0.2-1.2-0.6-1.5
				c-0.4-0.4-1.1-0.6-2-0.6c-0.6,0-1.3,0-1.9,0.1s-1.2,0.2-1.6,0.4l-0.5-3c0.2-0.1,0.5-0.1,0.8-0.2s0.7-0.1,1.1-0.2s0.8-0.1,1.2-0.2
				C107.4,17.6,107.8,17.6,108.3,17.6"/>
			<g id="Clip-11">
			</g>
			<path id="Fill-10" class="st0" d="M117.2,31.2h3.8V17.9h-3.8V31.2z M121.3,14.1c0,0.7-0.2,1.2-0.7,1.6c-0.4,0.4-1,0.6-1.6,0.6
				s-1.1-0.2-1.6-0.6c-0.4-0.4-0.7-0.9-0.7-1.6c0-0.7,0.2-1.2,0.7-1.6c0.4-0.4,1-0.6,1.6-0.6s1.1,0.2,1.6,0.6
				C121.1,12.9,121.3,13.4,121.3,14.1L121.3,14.1z"/>
			<path id="Fill-12" class="st0" d="M123.7,18.4c0.6-0.2,1.5-0.4,2.5-0.5c1-0.2,2.1-0.2,3.2-0.2c1.1,0,2.1,0.1,2.8,0.4
				s1.3,0.7,1.8,1.2c0.4,0.5,0.7,1.2,0.9,1.9c0.2,0.7,0.3,1.6,0.3,2.5v7.5h-3.8v-7c0-1.2-0.2-2.1-0.5-2.6s-0.9-0.8-1.8-0.8
				c-0.3,0-0.6,0-0.9,0c-0.3,0-0.6,0.1-0.8,0.1v10.2h-3.8V18.4H123.7z"/>
			<path id="Fill-13" class="st0" d="M84.5,44.4c-0.3-0.1-0.7-0.2-1.2-0.3S82.4,44,81.8,44c-0.2,0-0.5,0-0.8,0.1s-0.6,0.1-0.7,0.1
				v10.1h-3.8V41.8c0.7-0.2,1.5-0.5,2.4-0.7s1.9-0.3,3.1-0.3c0.2,0,0.4,0,0.7,0c0.3,0,0.6,0.1,0.9,0.1s0.6,0.1,0.9,0.2
				c0.3,0.1,0.5,0.1,0.7,0.2L84.5,44.4z"/>
			<path id="Fill-14" class="st0" d="M95.1,46.4c0-0.3-0.1-0.6-0.2-0.9c-0.1-0.3-0.2-0.6-0.4-0.8c-0.2-0.2-0.4-0.4-0.7-0.6
				c-0.3-0.2-0.7-0.2-1.1-0.2s-0.8,0.1-1.1,0.2c-0.3,0.1-0.6,0.3-0.8,0.6c-0.2,0.2-0.4,0.5-0.5,0.8s-0.2,0.6-0.2,0.9H95.1z
				 M86.3,47.8c0-1.2,0.2-2.2,0.5-3.1c0.4-0.9,0.8-1.6,1.4-2.2c0.6-0.6,1.3-1,2-1.3c0.8-0.3,1.6-0.5,2.4-0.5c1.9,0,3.4,0.6,4.5,1.7
				c1.1,1.2,1.6,2.8,1.6,5.1c0,0.2,0,0.5,0,0.7c0,0.3,0,0.5-0.1,0.7h-8.5c0.1,0.8,0.4,1.4,1.1,1.8c0.6,0.5,1.5,0.7,2.6,0.7
				c0.7,0,1.4-0.1,2-0.2c0.7-0.1,1.2-0.3,1.6-0.5l0.5,3.1c-0.2,0.1-0.5,0.2-0.8,0.3s-0.7,0.2-1.1,0.3s-0.9,0.1-1.3,0.2
				c-0.5,0.1-0.9,0.1-1.4,0.1c-1.2,0-2.2-0.2-3.1-0.5c-0.9-0.4-1.6-0.8-2.2-1.5c-0.6-0.6-1-1.3-1.3-2.2
				C86.4,49.7,86.3,48.8,86.3,47.8L86.3,47.8z"/>
			<path id="Fill-15" class="st0" d="M106,51.8c0.4,0,0.7,0,1.1,0c0.3,0,0.6,0,0.8-0.1v-2.9c-0.2,0-0.4-0.1-0.7-0.1
				c-0.3,0-0.6-0.1-0.8-0.1c-0.4,0-0.7,0-1,0.1c-0.3,0-0.6,0.1-0.8,0.2c-0.2,0.1-0.4,0.3-0.6,0.5c-0.1,0.2-0.2,0.5-0.2,0.8
				c0,0.6,0.2,1,0.6,1.2C104.7,51.6,105.3,51.8,106,51.8 M105.7,40.7c1.1,0,2,0.1,2.8,0.4c0.7,0.3,1.3,0.6,1.8,1.1
				c0.4,0.5,0.8,1,0.9,1.7c0.2,0.7,0.3,1.4,0.3,2.2V54c-0.5,0.1-1.3,0.3-2.2,0.4c-1,0.2-2.1,0.2-3.5,0.2c-0.9,0-1.6-0.1-2.3-0.2
				c-0.7-0.2-1.3-0.4-1.8-0.7s-0.9-0.8-1.2-1.4c-0.3-0.6-0.4-1.2-0.4-2s0.2-1.4,0.5-2c0.3-0.5,0.7-1,1.2-1.3s1.1-0.6,1.8-0.7
				c0.7-0.1,1.4-0.2,2.1-0.2c0.5,0,0.9,0,1.3,0.1c0.4,0,0.7,0.1,0.9,0.2V46c0-0.6-0.2-1.2-0.6-1.5c-0.4-0.4-1.1-0.6-2-0.6
				c-0.6,0-1.3,0-1.9,0.1s-1.2,0.2-1.6,0.4l-0.5-3c0.2-0.1,0.5-0.1,0.8-0.2c0.3-0.1,0.7-0.1,1.1-0.2c0.4-0.1,0.8-0.1,1.2-0.2
				C104.8,40.8,105.2,40.7,105.7,40.7"/>
			<path id="Fill-16" class="st0" d="M113.5,47.7c0-1,0.2-1.9,0.5-2.7s0.8-1.6,1.4-2.2c0.6-0.6,1.3-1.1,2.1-1.5
				c0.8-0.4,1.8-0.6,2.9-0.6c0.7,0,1.4,0.1,1.9,0.2c0.6,0.1,1.2,0.3,1.7,0.5l-0.8,3c-0.4-0.1-0.7-0.3-1.2-0.4
				c-0.4-0.1-0.9-0.2-1.4-0.2c-1.1,0-1.9,0.3-2.5,1c-0.5,0.7-0.8,1.6-0.8,2.7c0,1.2,0.3,2.1,0.8,2.8s1.4,1,2.7,1
				c0.5,0,0.9,0,1.5-0.1c0.5-0.1,1-0.2,1.4-0.4l0.5,3.1c-0.4,0.2-1,0.3-1.6,0.5c-0.7,0.1-1.4,0.2-2.2,0.2c-1.2,0-2.3-0.2-3.1-0.5
				c-0.9-0.4-1.6-0.9-2.2-1.5s-1-1.4-1.2-2.2C113.6,49.7,113.5,48.7,113.5,47.7"/>
			<path id="Fill-17" class="st0" d="M125.8,37.8l3.8-0.6v3.9h4.5v3.1h-4.5v4.7c0,0.8,0.1,1.4,0.4,1.9c0.3,0.5,0.8,0.7,1.7,0.7
				c0.4,0,0.8,0,1.2-0.1s0.8-0.2,1.2-0.3l0.5,2.9c-0.5,0.2-1,0.3-1.5,0.5c-0.6,0.1-1.2,0.2-2,0.2c-1,0-1.9-0.1-2.6-0.4
				c-0.7-0.3-1.2-0.7-1.6-1.2s-0.7-1.1-0.8-1.8c-0.2-0.7-0.2-1.5-0.2-2.3L125.8,37.8L125.8,37.8z"/>
			<path id="Fill-18" class="st0" d="M136.9,54.4h3.8V41.1h-3.8V54.4z M141,37.3c0,0.7-0.2,1.2-0.7,1.6c-0.4,0.4-1,0.6-1.6,0.6
				s-1.1-0.2-1.6-0.6c-0.4-0.4-0.7-0.9-0.7-1.6c0-0.7,0.2-1.2,0.7-1.6c0.4-0.4,1-0.6,1.6-0.6s1.1,0.2,1.6,0.6
				C140.8,36,141,36.6,141,37.3L141,37.3z"/>
			<path id="Fill-19" class="st0" d="M152.5,47.7c0-1.2-0.2-2.1-0.7-2.7c-0.5-0.7-1.1-1-2-1s-1.5,0.3-2,1s-0.7,1.6-0.7,2.7
				c0,1.2,0.2,2.1,0.7,2.8s1.1,1,2,1s1.5-0.3,2-1S152.5,48.9,152.5,47.7 M156.4,47.7c0,1-0.2,2-0.5,2.9s-0.7,1.6-1.3,2.2
				c-0.6,0.6-1.3,1.1-2.1,1.4c-0.8,0.3-1.7,0.5-2.7,0.5s-1.9-0.2-2.7-0.5s-1.5-0.8-2.1-1.4c-0.6-0.6-1-1.4-1.3-2.2
				c-0.3-0.9-0.5-1.8-0.5-2.9c0-1,0.2-2,0.5-2.9s0.8-1.6,1.4-2.2c0.6-0.6,1.3-1.1,2.1-1.4s1.7-0.5,2.6-0.5c1,0,1.8,0.2,2.6,0.5
				s1.5,0.8,2.1,1.4c0.6,0.6,1,1.3,1.3,2.2C156.2,45.7,156.4,46.7,156.4,47.7"/>
			<path id="Fill-20" class="st0" d="M158.5,41.6c0.6-0.2,1.5-0.4,2.5-0.5c1-0.2,2.1-0.2,3.2-0.2c1.1,0,2.1,0.1,2.8,0.4
				s1.3,0.7,1.8,1.2c0.4,0.5,0.7,1.2,0.9,1.9s0.3,1.6,0.3,2.5v7.5h-3.8v-7c0-1.2-0.2-2.1-0.5-2.6s-0.9-0.8-1.8-0.8
				c-0.3,0-0.6,0-0.9,0c-0.3,0-0.6,0.1-0.8,0.1v10.2h-3.8V41.6H158.5z"/>
		</g>
	</g>
</g>
</svg>
