<?xml version="1.0" encoding="utf-8"?>
<!-- Generator: Adobe Illustrator 24.3.0, SVG Export Plug-In . SVG Version: 6.00 Build 0)  -->
<svg version="1.1" id="Layer_1" xmlns="http://www.w3.org/2000/svg" xmlns:xlink="http://www.w3.org/1999/xlink" x="0px" y="0px"
	 viewBox="0 0 170 72" style="enable-background:new 0 0 170 72;" xml:space="preserve">
<style type="text/css">
	.st0{filter:url(#Adobe_OpacityMaskFilter);}
	.st1{fill-rule:evenodd;clip-rule:evenodd;fill:#FFFFFF;}
	.st2{mask:url(#mask-2_1_);fill-rule:evenodd;clip-rule:evenodd;}
	.st3{fill-rule:evenodd;clip-rule:evenodd;}
	.st4{filter:url(#Adobe_OpacityMaskFilter_1_);}
	.st5{mask:url(#mask-4_1_);fill-rule:evenodd;clip-rule:evenodd;}
	.st6{filter:url(#Adobe_OpacityMaskFilter_2_);}
	.st7{mask:url(#mask-4_2_);fill-rule:evenodd;clip-rule:evenodd;}
	.st8{filter:url(#Adobe_OpacityMaskFilter_3_);}
	.st9{mask:url(#mask-4_3_);fill-rule:evenodd;clip-rule:evenodd;}
	.st10{filter:url(#Adobe_OpacityMaskFilter_4_);}
	.st11{mask:url(#mask-4_4_);fill-rule:evenodd;clip-rule:evenodd;}
	.st12{filter:url(#Adobe_OpacityMaskFilter_5_);}
	.st13{mask:url(#mask-4_5_);fill-rule:evenodd;clip-rule:evenodd;}
	.st14{filter:url(#Adobe_OpacityMaskFilter_6_);}
	.st15{mask:url(#mask-4_6_);fill-rule:evenodd;clip-rule:evenodd;}
	.st16{filter:url(#Adobe_OpacityMaskFilter_7_);}
	.st17{mask:url(#mask-4_7_);fill-rule:evenodd;clip-rule:evenodd;}
	.st18{filter:url(#Adobe_OpacityMaskFilter_8_);}
	.st19{mask:url(#mask-4_8_);fill-rule:evenodd;clip-rule:evenodd;}
	.st20{filter:url(#Adobe_OpacityMaskFilter_9_);}
	.st21{mask:url(#mask-4_9_);fill-rule:evenodd;clip-rule:evenodd;}
	.st22{filter:url(#Adobe_OpacityMaskFilter_10_);}
	.st23{mask:url(#mask-4_10_);fill-rule:evenodd;clip-rule:evenodd;}
</style>
<g id="Page-1">
	<g id="CR_Landing_Mobile" transform="translate(-37.000000, -32.000000)">
		<g id="Group-21" transform="translate(37.000000, 32.000000)">
			<g id="Group-3">
				<g id="Clip-2">
				</g>
				<defs>
					<filter id="Adobe_OpacityMaskFilter" filterUnits="userSpaceOnUse" x="0" y="0" width="67.2" height="72">
						<feColorMatrix  type="matrix" values="1 0 0 0 0  0 1 0 0 0  0 0 1 0 0  0 0 0 1 0"/>
					</filter>
				</defs>
				<mask maskUnits="userSpaceOnUse" x="0" y="0" width="67.2" height="72" id="mask-2_1_">
					<g class="st0">
						<polygon id="path-1_1_" class="st1" points="0,0 67.2,0 67.2,72 0,72 						"/>
					</g>
				</mask>
				<path id="Fill-1" class="st2" d="M46,58.1c-1,0-1.8-0.8-1.8-1.8c0-1,0.8-1.8,1.8-1.8s1.8,0.8,1.8,1.8C47.8,57.3,47,58.1,46,58.1
					 M14,41.7c-1,0-1.8-0.8-1.8-1.8c0-1,0.8-1.8,1.8-1.8s1.8,0.8,1.8,1.8C15.8,40.9,15,41.7,14,41.7 M33.8,29.9
					c-1,0-1.8-0.8-1.8-1.8s0.8-1.8,1.8-1.8s1.8,0.8,1.8,1.8S34.8,29.9,33.8,29.9 M66.3,52c-0.4-0.3-0.9-0.3-1.4-0.2
					c-0.5,0.1-0.9,0.4-1.1,0.8C57.8,62.4,47.5,68.3,36,68.3C18.2,68.3,3.7,53.8,3.7,36c0-6.4,1.9-12.5,5.4-17.8H39
					c4.8,0,8.9,3.4,9.8,8.1H39c-0.8-2.2-2.8-3.6-5.2-3.6c-3,0-5.5,2.5-5.5,5.5s2.5,5.5,5.5,5.5c2.3,0,4.4-1.5,5.2-3.6h9.7
					c-0.9,4.6-5,8.1-9.8,8.1H19.1c-0.8-2.2-2.8-3.6-5.2-3.6c-3,0-5.5,2.5-5.5,5.5c0,3,2.5,5.5,5.5,5.5c2.3,0,4.4-1.5,5.2-3.6h14.4
					l8,11.5c-0.7,0.9-1,2-1,3.2c0,3,2.5,5.5,5.5,5.5s5.5-2.5,5.5-5.5c0-3-2.5-5.5-5.5-5.5c-0.5,0-1,0.1-1.4,0.2l-6.5-9.3H39
					c7.5,0,13.6-6.1,13.6-13.6S46.5,14.5,39,14.5H12C18.1,7.6,26.8,3.7,36,3.7c10.5,0,20.4,5.1,26.4,13.7c0.6,0.8,1.7,1,2.6,0.4
					c0.4-0.3,0.7-0.7,0.8-1.2c0.1-0.5,0-1-0.3-1.4C58.7,5.7,47.7,0,36,0C16.2,0,0,16.1,0,36s16.2,36,36,36c6.3,0,12.6-1.7,18-4.8
					c5.3-3.1,9.7-7.4,12.9-12.7C67.4,53.6,67.2,52.5,66.3,52"/>
			</g>
			<path id="Fill-4" class="st3" d="M75.9,24.6c0-1,0.2-1.9,0.5-2.7c0.3-0.8,0.8-1.6,1.4-2.2c0.6-0.6,1.3-1.1,2.1-1.5
				c0.8-0.4,1.8-0.6,2.9-0.6c0.7,0,1.4,0.1,1.9,0.2c0.6,0.1,1.2,0.3,1.7,0.5l-0.8,3c-0.4-0.1-0.7-0.3-1.2-0.4
				c-0.4-0.1-0.9-0.2-1.4-0.2c-1.1,0-1.9,0.3-2.5,1c-0.5,0.7-0.8,1.6-0.8,2.7c0,1.2,0.3,2.1,0.8,2.8c0.5,0.7,1.4,1,2.7,1
				c0.5,0,0.9,0,1.5-0.1c0.5-0.1,1-0.2,1.4-0.4l0.5,3.1c-0.4,0.2-1,0.3-1.6,0.5c-0.7,0.1-1.4,0.2-2.2,0.2c-1.2,0-2.3-0.2-3.1-0.5
				c-0.9-0.4-1.6-0.9-2.2-1.5c-0.6-0.6-1-1.4-1.2-2.2C76,26.5,75.9,25.6,75.9,24.6"/>
			<path id="Fill-6" class="st3" d="M88.9,31.2v-19l3.8-0.6V18c0.3-0.1,0.6-0.2,1-0.2c0.4-0.1,0.8-0.1,1.1-0.1c1.1,0,2,0.1,2.7,0.4
				c0.7,0.3,1.3,0.7,1.7,1.2c0.4,0.5,0.7,1.2,0.9,1.9c0.2,0.7,0.3,1.6,0.3,2.5v7.5h-3.8v-7c0-1.2-0.2-2.1-0.5-2.6
				c-0.3-0.5-0.9-0.8-1.7-0.8c-0.3,0-0.7,0-0.9,0.1c-0.3,0.1-0.6,0.1-0.8,0.2v10.1H88.9z"/>
			<path id="Fill-8" class="st3" d="M108.6,28.6c0.4,0,0.7,0,1.1,0c0.3,0,0.6,0,0.8-0.1v-2.9c-0.2,0-0.4-0.1-0.7-0.1
				c-0.3,0-0.6-0.1-0.8-0.1c-0.4,0-0.7,0-1,0.1c-0.3,0-0.6,0.1-0.8,0.2c-0.2,0.1-0.4,0.3-0.6,0.5c-0.1,0.2-0.2,0.5-0.2,0.8
				c0,0.6,0.2,1,0.6,1.2C107.3,28.5,107.9,28.6,108.6,28.6 M108.3,17.6c1.1,0,2,0.1,2.8,0.4c0.7,0.3,1.3,0.6,1.8,1.1
				c0.4,0.5,0.8,1,0.9,1.7c0.2,0.7,0.3,1.4,0.3,2.2v7.8c-0.5,0.1-1.3,0.3-2.2,0.4s-2.1,0.2-3.5,0.2c-0.9,0-1.6-0.1-2.3-0.2
				c-0.7-0.2-1.3-0.4-1.8-0.7c-0.5-0.3-0.9-0.8-1.2-1.3c-0.3-0.6-0.4-1.2-0.4-2c0-0.8,0.2-1.4,0.5-2c0.3-0.5,0.7-1,1.2-1.3
				c0.5-0.3,1.1-0.6,1.8-0.7c0.7-0.1,1.4-0.2,2.1-0.2c0.5,0,0.9,0,1.3,0.1c0.4,0,0.7,0.1,0.9,0.2v-0.4c0-0.6-0.2-1.2-0.6-1.5
				c-0.4-0.4-1.1-0.6-2-0.6c-0.6,0-1.3,0-1.9,0.1c-0.6,0.1-1.2,0.2-1.6,0.4l-0.5-3c0.2-0.1,0.5-0.1,0.8-0.2c0.3-0.1,0.7-0.1,1.1-0.2
				c0.4-0.1,0.8-0.1,1.2-0.2C107.4,17.6,107.8,17.6,108.3,17.6"/>
			<g id="Clip-11">
			</g>
			<defs>
				<filter id="Adobe_OpacityMaskFilter_1_" filterUnits="userSpaceOnUse" x="116.8" y="11.9" width="4.5" height="19.3">
					<feColorMatrix  type="matrix" values="1 0 0 0 0  0 1 0 0 0  0 0 1 0 0  0 0 0 1 0"/>
				</filter>
			</defs>
			<mask maskUnits="userSpaceOnUse" x="116.8" y="11.9" width="4.5" height="19.3" id="mask-4_1_">
				<g class="st4">
					<polygon id="path-3_1_" class="st1" points="0,72 170,72 170,0 0,0 					"/>
				</g>
			</mask>
			<path id="Fill-10" class="st5" d="M117.2,31.2h3.8V17.9h-3.8V31.2z M121.3,14.1c0,0.7-0.2,1.2-0.7,1.6c-0.4,0.4-1,0.6-1.6,0.6
				c-0.6,0-1.1-0.2-1.6-0.6c-0.4-0.4-0.7-0.9-0.7-1.6c0-0.7,0.2-1.2,0.7-1.6c0.4-0.4,1-0.6,1.6-0.6c0.6,0,1.1,0.2,1.6,0.6
				C121.1,12.9,121.3,13.4,121.3,14.1L121.3,14.1z"/>
			<defs>
				<filter id="Adobe_OpacityMaskFilter_2_" filterUnits="userSpaceOnUse" x="123.7" y="17.6" width="11.5" height="13.6">
					<feColorMatrix  type="matrix" values="1 0 0 0 0  0 1 0 0 0  0 0 1 0 0  0 0 0 1 0"/>
				</filter>
			</defs>
			<mask maskUnits="userSpaceOnUse" x="123.7" y="17.6" width="11.5" height="13.6" id="mask-4_2_">
				<g class="st6">
					<polygon id="path-3_2_" class="st1" points="0,72 170,72 170,0 0,0 					"/>
				</g>
			</mask>
			<path id="Fill-12" class="st7" d="M123.7,18.4c0.6-0.2,1.5-0.4,2.5-0.5c1-0.2,2.1-0.2,3.2-0.2c1.1,0,2.1,0.1,2.8,0.4
				c0.7,0.3,1.3,0.7,1.8,1.2c0.4,0.5,0.7,1.2,0.9,1.9c0.2,0.7,0.3,1.6,0.3,2.5v7.5h-3.8v-7c0-1.2-0.2-2.1-0.5-2.6
				c-0.3-0.5-0.9-0.8-1.8-0.8c-0.3,0-0.6,0-0.9,0c-0.3,0-0.6,0.1-0.8,0.1v10.2h-3.8V18.4z"/>
			<defs>
				<filter id="Adobe_OpacityMaskFilter_3_" filterUnits="userSpaceOnUse" x="76.5" y="40.8" width="8.6" height="13.6">
					<feColorMatrix  type="matrix" values="1 0 0 0 0  0 1 0 0 0  0 0 1 0 0  0 0 0 1 0"/>
				</filter>
			</defs>
			<mask maskUnits="userSpaceOnUse" x="76.5" y="40.8" width="8.6" height="13.6" id="mask-4_3_">
				<g class="st8">
					<polygon id="path-3_3_" class="st1" points="0,72 170,72 170,0 0,0 					"/>
				</g>
			</mask>
			<path id="Fill-13" class="st9" d="M84.5,44.4c-0.3-0.1-0.7-0.2-1.2-0.3c-0.5-0.1-0.9-0.1-1.5-0.1c-0.2,0-0.5,0-0.8,0.1
				s-0.6,0.1-0.7,0.1v10.1h-3.8V41.8c0.7-0.2,1.5-0.5,2.4-0.7c0.9-0.2,1.9-0.3,3.1-0.3c0.2,0,0.4,0,0.7,0c0.3,0,0.6,0.1,0.9,0.1
				c0.3,0,0.6,0.1,0.9,0.2c0.3,0.1,0.5,0.1,0.7,0.2L84.5,44.4z"/>
			<defs>
				<filter id="Adobe_OpacityMaskFilter_4_" filterUnits="userSpaceOnUse" x="86.3" y="40.7" width="12.5" height="14">
					<feColorMatrix  type="matrix" values="1 0 0 0 0  0 1 0 0 0  0 0 1 0 0  0 0 0 1 0"/>
				</filter>
			</defs>
			<mask maskUnits="userSpaceOnUse" x="86.3" y="40.7" width="12.5" height="14" id="mask-4_4_">
				<g class="st10">
					<polygon id="path-3_4_" class="st1" points="0,72 170,72 170,0 0,0 					"/>
				</g>
			</mask>
			<path id="Fill-14" class="st11" d="M95.1,46.4c0-0.3-0.1-0.6-0.2-0.9c-0.1-0.3-0.2-0.6-0.4-0.8c-0.2-0.2-0.4-0.4-0.7-0.6
				c-0.3-0.2-0.7-0.2-1.1-0.2c-0.4,0-0.8,0.1-1.1,0.2c-0.3,0.1-0.6,0.3-0.8,0.6c-0.2,0.2-0.4,0.5-0.5,0.8c-0.1,0.3-0.2,0.6-0.2,0.9
				H95.1z M86.3,47.8c0-1.2,0.2-2.2,0.5-3.1c0.4-0.9,0.8-1.6,1.4-2.2c0.6-0.6,1.3-1,2-1.3c0.8-0.3,1.6-0.5,2.4-0.5
				c1.9,0,3.4,0.6,4.5,1.7c1.1,1.2,1.6,2.8,1.6,5.1c0,0.2,0,0.5,0,0.7c0,0.3,0,0.5-0.1,0.7h-8.5c0.1,0.8,0.4,1.4,1.1,1.8
				c0.6,0.5,1.5,0.7,2.6,0.7c0.7,0,1.4-0.1,2-0.2c0.7-0.1,1.2-0.3,1.6-0.5l0.5,3.1c-0.2,0.1-0.5,0.2-0.8,0.3
				c-0.3,0.1-0.7,0.2-1.1,0.3c-0.4,0.1-0.9,0.1-1.3,0.2c-0.5,0.1-0.9,0.1-1.4,0.1c-1.2,0-2.2-0.2-3.1-0.5c-0.9-0.4-1.6-0.8-2.2-1.5
				c-0.6-0.6-1-1.3-1.3-2.2C86.4,49.7,86.3,48.8,86.3,47.8L86.3,47.8z"/>
			<defs>
				<filter id="Adobe_OpacityMaskFilter_5_" filterUnits="userSpaceOnUse" x="100" y="40.7" width="11.4" height="13.9">
					<feColorMatrix  type="matrix" values="1 0 0 0 0  0 1 0 0 0  0 0 1 0 0  0 0 0 1 0"/>
				</filter>
			</defs>
			<mask maskUnits="userSpaceOnUse" x="100" y="40.7" width="11.4" height="13.9" id="mask-4_5_">
				<g class="st12">
					<polygon id="path-3_5_" class="st1" points="0,72 170,72 170,0 0,0 					"/>
				</g>
			</mask>
			<path id="Fill-15" class="st13" d="M106,51.8c0.4,0,0.7,0,1.1,0c0.3,0,0.6,0,0.8-0.1v-2.9c-0.2,0-0.4-0.1-0.7-0.1
				c-0.3,0-0.6-0.1-0.8-0.1c-0.4,0-0.7,0-1,0.1c-0.3,0-0.6,0.1-0.8,0.2c-0.2,0.1-0.4,0.3-0.6,0.5c-0.1,0.2-0.2,0.5-0.2,0.8
				c0,0.6,0.2,1,0.6,1.2C104.7,51.6,105.3,51.8,106,51.8 M105.7,40.7c1.1,0,2,0.1,2.8,0.4c0.7,0.3,1.3,0.6,1.8,1.1
				c0.4,0.5,0.8,1,0.9,1.7c0.2,0.7,0.3,1.4,0.3,2.2V54c-0.5,0.1-1.3,0.3-2.2,0.4c-1,0.2-2.1,0.2-3.5,0.2c-0.9,0-1.6-0.1-2.3-0.2
				c-0.7-0.2-1.3-0.4-1.8-0.7c-0.5-0.3-0.9-0.8-1.2-1.4c-0.3-0.6-0.4-1.2-0.4-2c0-0.8,0.2-1.4,0.5-2c0.3-0.5,0.7-1,1.2-1.3
				c0.5-0.3,1.1-0.6,1.8-0.7c0.7-0.1,1.4-0.2,2.1-0.2c0.5,0,0.9,0,1.3,0.1c0.4,0,0.7,0.1,0.9,0.2V46c0-0.6-0.2-1.2-0.6-1.5
				c-0.4-0.4-1.1-0.6-2-0.6c-0.6,0-1.3,0-1.9,0.1c-0.6,0.1-1.2,0.2-1.6,0.4l-0.5-3c0.2-0.1,0.5-0.1,0.8-0.2c0.3-0.1,0.7-0.1,1.1-0.2
				c0.4-0.1,0.8-0.1,1.2-0.2C104.8,40.8,105.2,40.7,105.7,40.7"/>
			<defs>
				<filter id="Adobe_OpacityMaskFilter_6_" filterUnits="userSpaceOnUse" x="113.5" y="40.7" width="10.7" height="14">
					<feColorMatrix  type="matrix" values="1 0 0 0 0  0 1 0 0 0  0 0 1 0 0  0 0 0 1 0"/>
				</filter>
			</defs>
			<mask maskUnits="userSpaceOnUse" x="113.5" y="40.7" width="10.7" height="14" id="mask-4_6_">
				<g class="st14">
					<polygon id="path-3_6_" class="st1" points="0,72 170,72 170,0 0,0 					"/>
				</g>
			</mask>
			<path id="Fill-16" class="st15" d="M113.5,47.7c0-1,0.2-1.9,0.5-2.7c0.3-0.8,0.8-1.6,1.4-2.2c0.6-0.6,1.3-1.1,2.1-1.5
				c0.8-0.4,1.8-0.6,2.9-0.6c0.7,0,1.4,0.1,1.9,0.2c0.6,0.1,1.2,0.3,1.7,0.5l-0.8,3c-0.4-0.1-0.7-0.3-1.2-0.4
				c-0.4-0.1-0.9-0.2-1.4-0.2c-1.1,0-1.9,0.3-2.5,1c-0.5,0.7-0.8,1.6-0.8,2.7c0,1.2,0.3,2.1,0.8,2.8c0.5,0.7,1.4,1,2.7,1
				c0.5,0,0.9,0,1.5-0.1c0.5-0.1,1-0.2,1.4-0.4l0.5,3.1c-0.4,0.2-1,0.3-1.6,0.5c-0.7,0.1-1.4,0.2-2.2,0.2c-1.2,0-2.3-0.2-3.1-0.5
				c-0.9-0.4-1.6-0.9-2.2-1.5c-0.6-0.6-1-1.4-1.2-2.2C113.6,49.7,113.5,48.7,113.5,47.7"/>
			<defs>
				<filter id="Adobe_OpacityMaskFilter_7_" filterUnits="userSpaceOnUse" x="125.8" y="37.2" width="8.8" height="17.5">
					<feColorMatrix  type="matrix" values="1 0 0 0 0  0 1 0 0 0  0 0 1 0 0  0 0 0 1 0"/>
				</filter>
			</defs>
			<mask maskUnits="userSpaceOnUse" x="125.8" y="37.2" width="8.8" height="17.5" id="mask-4_7_">
				<g class="st16">
					<polygon id="path-3_7_" class="st1" points="0,72 170,72 170,0 0,0 					"/>
				</g>
			</mask>
			<path id="Fill-17" class="st17" d="M125.8,37.8l3.8-0.6v3.9h4.5v3.1h-4.5v4.7c0,0.8,0.1,1.4,0.4,1.9c0.3,0.5,0.8,0.7,1.7,0.7
				c0.4,0,0.8,0,1.2-0.1c0.4-0.1,0.8-0.2,1.2-0.3l0.5,2.9c-0.5,0.2-1,0.3-1.5,0.5c-0.6,0.1-1.2,0.2-2,0.2c-1,0-1.9-0.1-2.6-0.4
				c-0.7-0.3-1.2-0.7-1.6-1.2c-0.4-0.5-0.7-1.1-0.8-1.8c-0.2-0.7-0.2-1.5-0.2-2.3V37.8z"/>
			<defs>
				<filter id="Adobe_OpacityMaskFilter_8_" filterUnits="userSpaceOnUse" x="136.5" y="35" width="4.5" height="19.3">
					<feColorMatrix  type="matrix" values="1 0 0 0 0  0 1 0 0 0  0 0 1 0 0  0 0 0 1 0"/>
				</filter>
			</defs>
			<mask maskUnits="userSpaceOnUse" x="136.5" y="35" width="4.5" height="19.3" id="mask-4_8_">
				<g class="st18">
					<polygon id="path-3_8_" class="st1" points="0,72 170,72 170,0 0,0 					"/>
				</g>
			</mask>
			<path id="Fill-18" class="st19" d="M136.9,54.4h3.8V41.1h-3.8V54.4z M141,37.3c0,0.7-0.2,1.2-0.7,1.6c-0.4,0.4-1,0.6-1.6,0.6
				s-1.1-0.2-1.6-0.6c-0.4-0.4-0.7-0.9-0.7-1.6c0-0.7,0.2-1.2,0.7-1.6c0.4-0.4,1-0.6,1.6-0.6s1.1,0.2,1.6,0.6
				C140.8,36,141,36.6,141,37.3L141,37.3z"/>
			<defs>
				<filter id="Adobe_OpacityMaskFilter_9_" filterUnits="userSpaceOnUse" x="143.3" y="40.7" width="13.1" height="14">
					<feColorMatrix  type="matrix" values="1 0 0 0 0  0 1 0 0 0  0 0 1 0 0  0 0 0 1 0"/>
				</filter>
			</defs>
			<mask maskUnits="userSpaceOnUse" x="143.3" y="40.7" width="13.1" height="14" id="mask-4_9_">
				<g class="st20">
					<polygon id="path-3_9_" class="st1" points="0,72 170,72 170,0 0,0 					"/>
				</g>
			</mask>
			<path id="Fill-19" class="st21" d="M152.5,47.7c0-1.2-0.2-2.1-0.7-2.7c-0.5-0.7-1.1-1-2-1c-0.9,0-1.5,0.3-2,1
				c-0.5,0.7-0.7,1.6-0.7,2.7c0,1.2,0.2,2.1,0.7,2.8c0.5,0.7,1.1,1,2,1c0.9,0,1.5-0.3,2-1C152.3,49.8,152.5,48.9,152.5,47.7
				 M156.4,47.7c0,1-0.2,2-0.5,2.9c-0.3,0.9-0.7,1.6-1.3,2.2c-0.6,0.6-1.3,1.1-2.1,1.4c-0.8,0.3-1.7,0.5-2.7,0.5
				c-1,0-1.9-0.2-2.7-0.5c-0.8-0.3-1.5-0.8-2.1-1.4c-0.6-0.6-1-1.4-1.3-2.2c-0.3-0.9-0.5-1.8-0.5-2.9c0-1,0.2-2,0.5-2.9
				c0.3-0.9,0.8-1.6,1.4-2.2c0.6-0.6,1.3-1.1,2.1-1.4s1.7-0.5,2.6-0.5c1,0,1.8,0.2,2.6,0.5c0.8,0.3,1.5,0.8,2.1,1.4
				c0.6,0.6,1,1.3,1.3,2.2C156.2,45.7,156.4,46.7,156.4,47.7"/>
			<defs>
				<filter id="Adobe_OpacityMaskFilter_10_" filterUnits="userSpaceOnUse" x="158.5" y="40.8" width="11.5" height="13.6">
					<feColorMatrix  type="matrix" values="1 0 0 0 0  0 1 0 0 0  0 0 1 0 0  0 0 0 1 0"/>
				</filter>
			</defs>
			<mask maskUnits="userSpaceOnUse" x="158.5" y="40.8" width="11.5" height="13.6" id="mask-4_10_">
				<g class="st22">
					<polygon id="path-3_10_" class="st1" points="0,72 170,72 170,0 0,0 					"/>
				</g>
			</mask>
			<path id="Fill-20" class="st23" d="M158.5,41.6c0.6-0.2,1.5-0.4,2.5-0.5c1-0.2,2.1-0.2,3.2-0.2c1.1,0,2.1,0.1,2.8,0.4
				s1.3,0.7,1.8,1.2c0.4,0.5,0.7,1.2,0.9,1.9c0.2,0.7,0.3,1.6,0.3,2.5v7.5h-3.8v-7c0-1.2-0.2-2.1-0.5-2.6c-0.3-0.5-0.9-0.8-1.8-0.8
				c-0.3,0-0.6,0-0.9,0c-0.3,0-0.6,0.1-0.8,0.1v10.2h-3.8V41.6z"/>
		</g>
	</g>
</g>
</svg>
