<?xml version="1.0" encoding="UTF-8"?>
<svg width="100px" height="100px" viewBox="0 0 100 100" version="1.1" xmlns="http://www.w3.org/2000/svg" xmlns:xlink="http://www.w3.org/1999/xlink">
    <title>Efficiency</title>
    <g id="Page-1" stroke="none" stroke-width="1" fill="none" fill-rule="evenodd">
        <g id="CR_Landing" transform="translate(-900.000000, -2524.000000)">
            <rect id="Rectangle-Copy-2" fill="#EEEEEE" x="0" y="2264" width="1600" height="614"></rect>
            <g id="time-management" transform="translate(900.000000, 2524.000000)" fill-rule="nonzero">
                <polygon id="Path" fill="#000000" points="48.5477178 90.0414938 51.8672199 90.0414938 51.8672199 93.3609959 48.5477178 93.3609959"></polygon>
                <polygon id="Path" fill="#000000" transform="translate(79.531439, 79.548548) rotate(-45.000000) translate(-79.531439, -79.548548) " points="77.8719386 77.8890473 81.1909394 77.8890473 81.1909394 81.2080481 77.8719386 81.2080481"></polygon>
                <polygon id="Path" fill="#000000" points="90.0414938 48.5477178 93.3609959 48.5477178 93.3609959 51.8672199 90.0414938 51.8672199"></polygon>
                <path d="M98.340249,38.5892116 L86.5726141,38.5892116 C85.9304417,36.5641325 85.1169913,34.5974149 84.1410788,32.7103734 L92.4580913,24.3917012 C93.1060281,23.7435687 93.1060281,22.6929458 92.4580913,22.0448133 L85.4157676,15.0041494 C72.8784262,2.22588722 54.4465616,-2.8386971 37.1401815,1.73930711 C19.8338014,6.31731131 6.31696963,19.8331873 1.73774164,37.1392436 C-2.84148635,54.4453 2.22179456,72.8775226 14.9991701,85.4157676 L22.039834,92.4580913 C22.6879666,93.1060281 23.7385895,93.1060281 24.386722,92.4580913 L32.7053942,84.1410788 C34.5941325,85.1165955 36.5625172,85.9294911 38.5892116,86.5709544 L38.5892116,98.340249 C38.5892116,99.2569041 39.3323075,100 40.2489627,100 L60.1659751,100 C61.0826303,100 61.8257261,99.2569041 61.8257261,98.340249 L61.8257261,86.5726141 C63.8507189,85.9308863 65.8174275,85.1179949 67.7045643,84.1427386 L76.0232365,92.459751 C76.671369,93.1076879 77.7219919,93.1076879 78.3701245,92.459751 L92.453112,78.3767635 C93.1010489,77.728631 93.1010489,76.6780081 92.453112,76.0298755 L84.1360996,67.7112033 C85.113409,65.8220954 85.9279736,63.8531477 86.5709544,61.8257261 L98.340249,61.8257261 C99.2569041,61.8257261 100,61.0826303 100,60.1659751 L100,40.2489627 C100,39.3323075 99.2569041,38.5892116 98.340249,38.5892116 L98.340249,38.5892116 Z M17.3443983,17.3443983 C35.0336644,-0.350487899 63.5594783,-0.85681119 81.8655602,16.1991701 L79.5219917,18.5427386 C62.5020371,2.83569971 36.1180315,3.36471332 19.7413724,19.7413724 C3.36471332,36.1180315 2.83569971,62.5020371 18.5427386,79.5219917 L16.1991701,81.8655602 C-0.85681119,63.5594783 -0.350487899,35.0336644 17.3443983,17.3443983 L17.3443983,17.3443983 Z M64.2904564,36.1244813 C71.960547,43.9205273 71.9095571,56.4429077 64.1762324,64.1762324 C56.4429077,71.9095571 43.9205273,71.960547 36.1244813,64.2904564 C35.4763488,63.6425196 34.4257259,63.6425196 33.7775934,64.2904564 L20.8912863,77.1767635 C6.42740843,61.4618489 6.93139372,37.1361054 22.0337496,22.0337496 C37.1361054,6.93139372 61.4618489,6.42740843 77.1767635,20.8912863 L64.2904564,33.7759336 C63.9787933,34.0872502 63.8036736,34.5096942 63.8036736,34.9502075 C63.8036736,35.3907207 63.9787933,35.8131647 64.2904564,36.1244813 L64.2904564,36.1244813 Z M96.6804979,58.5062241 L85.3344398,58.5062241 C84.5887365,58.5057908 83.9342882,59.002737 83.7344398,59.7211618 C83.0053943,62.3247188 81.9684744,64.8320479 80.6456432,67.1900415 C80.2791437,67.8403597 80.3918827,68.6553406 80.9211618,69.1817427 L88.9360996,77.1983402 L77.2016598,88.9327801 L69.1850622,80.9178423 C68.6586601,80.3885632 67.8436792,80.2758242 67.193361,80.6423237 C64.8353674,81.9651549 62.3280383,83.0020748 59.7244813,83.7311203 C59.0060565,83.9309687 58.5091103,84.585417 58.5095436,85.3311203 L58.5095436,96.6804979 L41.9087137,96.6804979 L41.9087137,85.3344398 C41.909147,84.5887365 41.4122008,83.9342882 40.6937759,83.7344398 C38.090219,83.0053943 35.5828899,81.9684744 33.2248963,80.6456432 C32.5745781,80.2791437 31.7595972,80.3918827 31.233195,80.9211618 L23.2165975,88.9360996 L18.5228216,84.2423237 L34.9958506,67.7709544 C44.2092709,75.7474148 58.0196931,75.2508168 66.6364208,66.6332164 C75.2531485,58.0156159 75.7483478,44.2051436 67.7709544,34.9925311 L84.2423237,18.5195021 L88.9360996,23.213278 L80.9211618,31.2298755 C80.3918827,31.7562777 80.2791437,32.5712586 80.6456432,33.2215768 C81.9687166,35.5794529 83.0056487,38.0868116 83.7344398,40.6904564 C83.9342882,41.4088813 84.5887365,41.9058275 85.3344398,41.9053942 L96.6804979,41.9053942 L96.6804979,58.5062241 Z" id="Shape" fill="#000000"></path>
                <path d="M51.8672199,43.8041494 L51.8672199,25.3112033 C51.8672199,24.3945481 51.1241241,23.6514523 50.2074689,23.6514523 C49.2908137,23.6514523 48.5477178,24.3945481 48.5477178,25.3112033 L48.5477178,43.8041494 C46.2252041,44.4114363 44.4114363,46.2252041 43.8041494,48.5477178 L31.9502075,48.5477178 C31.0335523,48.5477178 30.2904564,49.2908137 30.2904564,50.2074689 C30.2904564,51.1241241 31.0335523,51.8672199 31.9502075,51.8672199 L43.8041494,51.8672199 C44.6068581,54.9996879 47.5534984,57.0951488 50.7758814,56.8250672 C53.9982645,56.5549856 56.5549856,53.9982645 56.8250672,50.7758814 C57.0951488,47.5534984 54.9996879,44.6068581 51.8672199,43.8041494 L51.8672199,43.8041494 Z M50.2074689,53.526971 C48.3741585,53.526971 46.8879668,52.0407793 46.8879668,50.2074689 C46.8879668,48.3741585 48.3741585,46.8879668 50.2074689,46.8879668 C52.0407793,46.8879668 53.526971,48.3741585 53.526971,50.2074689 C53.526971,52.0407793 52.0407793,53.526971 50.2074689,53.526971 Z" id="Shape" fill="#00D7B5"></path>
                <path d="M50.2074689,18.6721992 C49.2908137,18.6721992 48.5477178,17.9291033 48.5477178,17.0124481 L48.5477178,13.6929461 C48.5477178,12.7762909 49.2908137,12.033195 50.2074689,12.033195 C51.1241241,12.033195 51.8672199,12.7762909 51.8672199,13.6929461 L51.8672199,17.0124481 C51.8672199,17.9291033 51.1241241,18.6721992 50.2074689,18.6721992 Z" id="Path" fill="#000000"></path>
                <path d="M66.8049793,23.1203327 C66.2123114,23.1197244 65.6649395,22.8031376 65.3688687,22.28972 C65.0727979,21.7763024 65.0729602,21.1439709 65.3692946,20.6307054 L67.0290456,17.7543568 C67.490466,16.9672803 68.500659,16.7002015 69.2907789,17.1563908 C70.0808989,17.6125802 70.3546727,18.6209793 69.9037344,19.4141079 L68.2439834,22.2904564 C67.9472087,22.804486 67.398529,23.1209103 66.8049793,23.1203327 Z" id="Path" fill="#000000"></path>
                <path d="M33.6099585,23.1203327 C33.0164087,23.1209103 32.4677291,22.804486 32.1709544,22.2904564 L30.5112033,19.4141079 C30.0602651,18.6209793 30.3340389,17.6125802 31.1241588,17.1563908 C31.9142788,16.7002015 32.9244717,16.9672803 33.3858921,17.7543568 L35.0456432,20.6307054 C35.3419776,21.1439709 35.3421399,21.7763024 35.0460691,22.28972 C34.7499982,22.8031376 34.2026264,23.1197244 33.6099585,23.1203327 L33.6099585,23.1203327 Z" id="Path" fill="#000000"></path>
                <path d="M21.4589212,35.2697132 C21.1674876,35.2703267 20.8811121,35.1935781 20.6290456,35.0473029 L17.7526971,33.3875519 C16.9656206,32.9261315 16.6985417,31.9159385 17.1547311,31.1258186 C17.6109204,30.3356986 18.6193196,30.0619248 19.4124481,30.5128631 L22.2887967,32.1726141 C22.9393216,32.5482389 23.2564661,33.3139523 23.0620431,34.0395391 C22.86762,34.765126 22.2101047,35.2697132 21.4589212,35.2697132 Z" id="Path" fill="#000000"></path>
                <path d="M17.0124481,51.8672199 L13.6929461,51.8672199 C12.7762909,51.8672199 12.033195,51.1241241 12.033195,50.2074689 C12.033195,49.2908137 12.7762909,48.5477178 13.6929461,48.5477178 L17.0124481,48.5477178 C17.9291033,48.5477178 18.6721992,49.2908137 18.6721992,50.2074689 C18.6721992,51.1241241 17.9291033,51.8672199 17.0124481,51.8672199 Z" id="Path" fill="#000000"></path>
                <path d="M18.5858921,70.124485 C17.8347086,70.124485 17.1771933,69.6198978 16.9827702,68.8943109 C16.7883471,68.168724 17.1054917,67.4030107 17.7560166,67.0273859 L20.6323651,65.3676349 C21.146175,65.066416 21.7819908,65.0635962 22.2984521,65.3602459 C22.8149135,65.6568956 23.1328315,66.2075296 23.1315262,66.8031231 C23.1302128,67.3987167 22.8098768,67.9479476 22.2921162,68.2423237 L19.4157676,69.9020747 C19.1637012,70.0483498 18.8773257,70.1250985 18.5858921,70.124485 L18.5858921,70.124485 Z" id="Path" fill="#000000"></path>
                <path d="M50.2074689,66.805043 C45.802945,66.8172318 41.57737,65.0631519 38.4763485,61.9352697 C38.0455156,61.5179298 37.8733807,60.9006042 38.0260995,60.3205468 C38.1788183,59.7404894 38.6326262,59.2879635 39.2131133,59.1368862 C39.7936004,58.9858089 40.4104365,59.1596895 40.826556,59.5917012 C44.1665194,63.0033601 49.0817774,64.3577646 53.6978261,63.1383933 C58.3138748,61.919022 61.919022,58.3138748 63.1383933,53.6978261 C64.3577646,49.0817774 63.0033601,44.1665194 59.5917012,40.826556 C59.1596895,40.4104365 58.9858089,39.7936004 59.1368862,39.2131133 C59.2879635,38.6326262 59.7404894,38.1788183 60.3205468,38.0260995 C60.9006042,37.8733807 61.5179298,38.0455156 61.9352697,38.4763485 C66.6774061,43.2225962 68.0956408,50.3570808 65.5292795,56.5561545 C62.9629182,62.7552282 56.916768,66.7995239 50.2074689,66.805043 Z" id="Path" fill="#000000"></path>
            </g>
        </g>
    </g>
</svg>