<?xml version="1.0" encoding="UTF-8"?>
<svg width="100px" height="100px" viewBox="0 0 100 100" version="1.1" xmlns="http://www.w3.org/2000/svg" xmlns:xlink="http://www.w3.org/1999/xlink">
    <title>Performance</title>
    <g id="Page-1" stroke="none" stroke-width="1" fill="none" fill-rule="evenodd">
        <g id="CR_Landing" transform="translate(-300.000000, -2524.000000)">
            <rect id="Rectangle-Copy-2" fill="#EEEEEE" x="0" y="2264" width="1600" height="614"></rect>
            <g id="Group-7" transform="translate(300.000000, 2524.000000)" fill-rule="nonzero">
                <path d="M52.4727783,47.5295113 C51.7091064,46.7658395 50.4727783,46.7658395 49.7091064,47.5295113 C48.9473877,48.2912301 48.9473877,49.5275582 49.7091064,50.2912301 C50.4727783,51.0529488 51.7091064,51.0529488 52.4727783,50.2912301 C53.2344971,49.5275582 53.2344971,48.2912301 52.4727783,47.5295113 Z" id="Path" fill="#000000"></path>
                <path d="M77.3303955,22.669941 C73.5139893,18.8537301 67.3358643,18.8535348 63.5192627,22.669941 C59.7128174,26.4763863 59.7126221,32.6716988 63.5198486,36.4812691 C67.3276611,40.2867379 73.5229736,40.2883004 77.3303955,36.4808785 C81.1464111,32.6648629 81.1471924,26.4865426 77.3303955,22.669941 Z M74.5682861,33.7185738 C72.2844971,36.0025582 68.5669189,36.0025582 66.281958,33.7189645 C63.9977783,31.4334176 63.997583,27.7158395 66.2815674,25.4320504 C68.5712158,23.142402 72.2782471,23.1420113 74.5682861,25.4320504 C76.8579346,27.7215035 76.8583252,31.4287301 74.5682861,33.7185738 Z" id="Shape" fill="#000000"></path>
                <path d="M99.4274658,0.572089454 C99.0438721,0.188691016 98.5204346,-0.0191214839 97.9762939,0.00138632857 C97.5346924,0.0172066411 87.0200439,0.439862891 74.5210205,4.85763633 C64.5053955,8.39396445 56.1571533,13.4570504 49.7081299,19.9062691 C48.2630127,21.3513863 46.8567627,22.8838082 45.5112549,24.4758004 C39.1346924,20.7222848 34.0249268,21.8992379 30.7946533,23.6279488 C23.356958,27.6084176 18.7532471,38.4162301 18.7532471,46.1466988 C18.7532471,46.9365426 19.2298096,47.6488473 19.9594971,47.9509957 C20.2010986,48.051191 20.4550049,48.0998238 20.7065674,48.0998238 C21.2149658,48.0998238 21.7143799,47.901191 22.0880127,47.5277535 C26.0104736,43.6052926 30.8485596,43.8506051 32.4290283,44.0584176 L33.1130127,44.742402 C31.7669189,47.945527 30.6825439,51.1306832 29.8872314,54.2285348 C29.6001221,55.3496285 29.6969971,56.5359566 30.1237549,57.6211129 C28.2432861,58.4877145 26.4290283,59.7601754 24.8493408,61.3398629 C19.8218018,66.3675973 18.8009033,78.6203316 18.7598877,79.1394723 C18.7149658,79.7091988 18.9216064,80.2701363 19.325708,80.6742379 C19.6934814,81.041816 20.1909424,81.2463082 20.7065674,81.2463082 C20.7577393,81.2463082 20.8091064,81.2443551 20.8604736,81.2402535 C21.3796143,81.1994332 33.6327393,80.1785348 38.6602783,75.1509957 C40.2393799,73.5718941 41.5116455,71.7578316 42.3782471,69.8777535 C43.5270752,70.3295113 44.7094971,70.3851754 45.7727783,70.1127145 C48.8692627,69.3175973 52.0540283,68.2336129 55.2575439,66.8873238 L55.9415283,67.5713082 C56.1491455,69.1519723 56.394458,73.9900582 52.4721924,77.9121285 C51.9137939,78.4707223 51.7466064,79.3107613 52.0489502,80.0404488 C52.3510986,80.7703316 53.063208,81.2463082 53.8532471,81.2463082 C61.5837158,81.2463082 72.391333,76.642402 76.3718018,69.2047066 C78.1005127,65.9748238 79.2774658,60.8650582 75.5239502,54.4883004 C77.1151611,53.1433785 78.6477783,51.7371285 80.0934814,50.2914254 C86.5427002,43.8422066 91.6055908,35.4939645 95.1419189,25.4791207 C99.5598877,12.9795113 99.9823486,2.46466758 99.9981689,2.02326133 C100.0177,1.48126914 99.8108643,0.955683204 99.4274658,0.572089454 Z M23.1200439,41.9457223 C24.3333252,36.0740426 27.8573486,29.6308785 32.6385986,27.0718941 C35.8337158,25.3621285 39.3260986,25.5297066 43.0393799,27.5623238 C39.8759033,31.7228707 37.125708,36.2052926 34.8333252,40.938691 C34.8042236,40.9207223 34.4526611,40.4787301 33.7995361,40.3314645 C33.5309814,40.2707223 28.363208,39.1591988 23.1200439,41.9457223 Z M35.8981689,72.388691 C33.2126221,75.0742379 26.9128174,76.4906441 22.9309814,77.0689645 C23.5094971,73.0869332 24.9260986,66.7873238 27.6114502,64.1019723 C29.1153564,62.598066 30.8591064,61.4578316 32.6118408,60.8156441 L39.1844971,67.3883004 C38.5423096,69.1410348 37.4022705,70.8847848 35.8981689,72.388691 Z M44.8024658,66.3287301 C44.2372314,66.4734566 43.5825439,66.2609566 43.0958252,65.7750191 C40.5690674,63.2482613 39.5805908,62.2597848 39.2704346,61.9498238 C38.7016846,61.3810738 37.306958,59.9863473 34.2262939,56.9054879 C33.7391846,56.417402 33.5266846,55.7629098 33.6710205,55.198652 C34.2966064,52.7623238 35.1147705,50.2627145 36.1096924,47.7390816 L52.2610596,63.8904488 C49.7370361,64.885566 47.2378174,65.7035348 44.8024658,66.3287301 Z M72.9282471,67.3615426 C70.3692627,72.1425973 63.9262939,75.666816 58.0548096,76.879902 C59.9268799,73.3570504 60.3395752,68.8724801 59.6555908,66.1531441 C59.4968018,65.5215035 59.0846924,65.2039254 59.0616455,65.1666207 C63.7946533,62.8742379 68.2768799,60.1240426 72.4378174,56.960566 C74.4704346,60.6742379 74.6378174,64.1670113 72.9282471,67.3615426 Z M77.3317627,47.529316 C75.5718018,49.2890816 73.6766846,50.989277 71.6989502,52.582441 C66.9446533,56.410566 61.7118408,59.6531441 56.1290283,62.2343941 L37.7657471,43.8715035 C40.3469971,38.2883004 43.5895752,33.0554879 47.4173096,28.301777 C49.0118408,26.3226754 50.7118408,24.4273629 52.4710205,22.6683785 C58.2571533,16.8820504 65.7247314,12.2769723 74.6723877,8.96212852 L91.0380127,25.3277535 C87.7235596,34.2752145 83.1184814,41.7427926 77.3317627,47.529316 Z M92.4432861,21.2084176 L78.7917236,7.55685508 C86.2294189,5.24669883 92.6999268,4.38165977 95.9296143,4.07072227 C95.6184814,7.3009957 94.7532471,13.7715035 92.4432861,21.2084176 Z" id="Shape" fill="#000000"></path>
                <path d="M46.9471924,80.673652 C46.1841064,79.9109566 44.9473877,79.9113473 44.1848877,80.6740426 L38.6614502,86.1994332 C37.8989502,86.9623238 37.8991455,88.1990426 38.6618408,88.9615426 C39.4249268,89.7240426 40.6616455,89.7240426 41.4241455,88.961152 L46.947583,83.4357613 C47.710083,82.6728707 47.7098877,81.436152 46.9471924,80.673652 Z" id="Path" fill="#00D7B5"></path>
                <path d="M19.3266846,53.0529488 C18.5641846,52.2900582 17.3276611,52.2900582 16.5645752,53.0525582 L11.0391846,58.5759957 C10.2762939,59.3384957 10.2760986,60.5752145 11.0385986,61.3381051 C11.8009033,62.1006051 13.0374268,62.1013863 13.800708,61.3384957 L19.3260986,55.8150582 C20.0889893,55.0525582 20.0891846,53.8158395 19.3266846,53.0529488 Z" id="Path" fill="#00D7B5"></path>
                <path d="M33.1370361,83.4375191 C32.3747314,82.6748238 31.1378174,82.6748238 30.3749268,83.4373238 L17.144458,96.6658395 C16.3815674,97.4285348 16.3815674,98.6652535 17.1442627,99.4279488 C17.9065674,100.190644 19.1434814,100.191035 19.9063721,99.4281441 L33.1368408,86.1996285 C33.8997314,85.4369332 33.8997314,84.2002145 33.1370361,83.4375191 Z" id="Path" fill="#00D7B5"></path>
                <path d="M17.5120361,83.4375191 C16.7495361,82.6748238 15.5126221,82.6748238 14.7499268,83.4373238 L1.51945801,96.6658395 C0.756567385,97.4285348 0.756567385,98.6652535 1.5192627,99.4279488 C2.28156739,100.190644 3.51848145,100.191035 4.28137207,99.4281441 L17.5118408,86.1996285 C18.2747314,85.4369332 18.2747314,84.2002145 17.5120361,83.4375191 Z" id="Path" fill="#00D7B5"></path>
                <path d="M16.5626221,66.8629098 C15.8001221,66.1004098 14.563208,66.1004098 13.8005127,66.8631051 L0.571997073,80.0935738 C-0.19069824,80.8564645 -0.19069824,82.0929879 0.572192385,82.8558785 C1.3348877,83.6185738 2.57160645,83.6185738 3.33430176,82.8556832 L16.5628174,69.6252145 C17.3255127,68.8623238 17.3255127,67.6258004 16.5626221,66.8629098 Z" id="Path" fill="#00D7B5"></path>
                <path d="M60.7581299,39.2420113 C59.9952393,38.479316 58.7589111,38.479316 57.9958252,39.2420113 L55.2341064,42.0037301 C54.4714111,42.7664254 54.4714111,44.0031441 55.2341064,44.7660348 C55.9969971,45.5287301 57.2335205,45.5287301 57.9964111,44.7660348 L60.7581299,42.004316 C61.5208252,41.2416207 61.5208252,40.004902 60.7581299,39.2420113 Z" id="Path" fill="#000000"></path>
            </g>
        </g>
    </g>
</svg>