<?xml version="1.0" encoding="UTF-8"?>
<svg width="100px" height="100px" viewBox="0 0 100 100" version="1.1" xmlns="http://www.w3.org/2000/svg" xmlns:xlink="http://www.w3.org/1999/xlink">
    <title>Scale</title>
    <g id="Page-1" stroke="none" stroke-width="1" fill="none" fill-rule="evenodd">
        <g id="CR_Landing" transform="translate(-1200.000000, -2524.000000)">
            <rect id="Rectangle-Copy-2" fill="#EEEEEE" x="0" y="2264" width="1600" height="614"></rect>
            <g id="Group-8" transform="translate(1200.000000, 2524.000000)" fill-rule="nonzero">
                <path d="M98.3870968,0 L1.61290323,0 C0.722121371,0 0,0.722121371 0,1.61290323 L0,98.3870968 C0,99.2778786 0.722121371,100 1.61290323,100 L98.3870968,100 C99.2778786,100 100,99.2778786 100,98.3870968 L100,1.61290323 C100,0.722121371 99.2778786,0 98.3870968,0 Z M96.7741935,96.7741935 L3.22580645,96.7741935 L3.22580645,3.22580645 L96.7741935,3.22580645 L96.7741935,96.7741935 Z" id="Shape" fill="#000000"></path>
                <path d="M9.67741935,27.4193548 C10.5682012,27.4193548 11.2903226,26.6972335 11.2903226,25.8064516 L11.2903226,13.5709677 L34.3435484,36.6241935 C34.9764176,37.235439 35.9823948,37.2266974 36.6045461,36.6045461 C37.2266974,35.9823948 37.235439,34.9764176 36.6241935,34.3435484 L13.5709677,11.2903226 L25.8064516,11.2903226 C26.6972335,11.2903226 27.4193548,10.5682012 27.4193548,9.67741935 C27.4193548,8.7866375 26.6972335,8.06451613 25.8064516,8.06451613 L9.67741935,8.06451613 C8.7866375,8.06451613 8.06451613,8.7866375 8.06451613,9.67741935 L8.06451613,25.8064516 C8.06451613,26.6972335 8.7866375,27.4193548 9.67741935,27.4193548 Z" id="Path" fill="#000000"></path>
                <path d="M64.516129,37.0967742 C64.9438626,37.0967742 65.354044,36.9266925 65.6564516,36.6241935 L88.7096774,13.5709677 L88.7096774,25.8064516 C88.7096774,26.6972335 89.4317988,27.4193548 90.3225806,27.4193548 C91.2133625,27.4193548 91.9354839,26.6972335 91.9354839,25.8064516 L91.9354839,9.67741935 C91.9354839,8.7866375 91.2133625,8.06451613 90.3225806,8.06451613 L74.1935484,8.06451613 C73.3027665,8.06451613 72.5806452,8.7866375 72.5806452,9.67741935 C72.5806452,10.5682012 73.3027665,11.2903226 74.1935484,11.2903226 L86.4290323,11.2903226 L63.3758065,34.3435484 C62.9146647,34.8048294 62.7767389,35.4984462 63.0263258,36.1010557 C63.2759128,36.7036653 63.8638776,37.0967742 64.516129,37.0967742 Z" id="Path" fill="#00D7B5"></path>
                <path d="M86.4290323,88.7096774 L74.1935484,88.7096774 C73.3027665,88.7096774 72.5806452,89.4317988 72.5806452,90.3225806 C72.5806452,91.2133625 73.3027665,91.9354839 74.1935484,91.9354839 L90.3225806,91.9354839 C91.2133625,91.9354839 91.9354839,91.2133625 91.9354839,90.3225806 L91.9354839,74.1935484 C91.9354839,73.3027665 91.2133625,72.5806452 90.3225806,72.5806452 C89.4317988,72.5806452 88.7096774,73.3027665 88.7096774,74.1935484 L88.7096774,86.4290323 L65.6564516,63.3758065 C65.0235824,62.764561 64.0176052,62.7733026 63.3954539,63.3954539 C62.7733026,64.0176052 62.764561,65.0235824 63.3758065,65.6564516 L86.4290323,88.7096774 Z" id="Path" fill="#000000"></path>
                <path d="M9.06129032,91.8112903 C9.2566576,91.892291 9.46592832,91.9344738 9.67741935,91.9354839 L25.8064516,91.9354839 C26.6972335,91.9354839 27.4193548,91.2133625 27.4193548,90.3225806 C27.4193548,89.4317988 26.6972335,88.7096774 25.8064516,88.7096774 L13.5709677,88.7096774 L36.6241935,65.6564516 C37.235439,65.0235824 37.2266974,64.0176052 36.6045461,63.3954539 C35.9823948,62.7733026 34.9764176,62.764561 34.3435484,63.3758065 L11.2903226,86.4290323 L11.2903226,74.1935484 C11.2903226,73.3027665 10.5682012,72.5806452 9.67741935,72.5806452 C8.7866375,72.5806452 8.06451613,73.3027665 8.06451613,74.1935484 L8.06451613,90.3225806 C8.06527427,90.9746908 8.45863413,91.5621845 9.06129032,91.8112903 L9.06129032,91.8112903 Z" id="Path" fill="#000000"></path>
                <path d="M35.483871,90.3225806 C35.483871,91.2133625 36.2059923,91.9354839 37.0967742,91.9354839 L56.4516129,91.9354839 C57.3423948,91.9354839 58.0645161,91.2133625 58.0645161,90.3225806 C58.0645161,89.4317988 57.3423948,88.7096774 56.4516129,88.7096774 L37.0967742,88.7096774 C36.2059923,88.7096774 35.483871,89.4317988 35.483871,90.3225806 Z" id="Path" fill="#000000"></path>
                <path d="M61.2903226,91.9354839 L62.9032258,91.9354839 C63.7940077,91.9354839 64.516129,91.2133625 64.516129,90.3225806 C64.516129,89.4317988 63.7940077,88.7096774 62.9032258,88.7096774 L61.2903226,88.7096774 C60.3995407,88.7096774 59.6774194,89.4317988 59.6774194,90.3225806 C59.6774194,91.2133625 60.3995407,91.9354839 61.2903226,91.9354839 Z" id="Path" fill="#000000"></path>
            </g>
        </g>
    </g>
</svg>