<?xml version="1.0" encoding="UTF-8"?>
<svg width="100px" height="100px" viewBox="0 0 100 100" version="1.1" xmlns="http://www.w3.org/2000/svg" xmlns:xlink="http://www.w3.org/1999/xlink">
    <title>Privacy</title>
    <g id="Page-1" stroke="none" stroke-width="1" fill="none" fill-rule="evenodd">
        <g id="CR_Landing" transform="translate(-600.000000, -2524.000000)">
            <rect id="Rectangle-Copy-2" fill="#EEEEEE" x="0" y="2264" width="1600" height="614"></rect>
            <g id="secure-data" transform="translate(600.000000, 2524.000000)" fill-rule="nonzero">
                <path d="M11.6666016,6.66660156 L10,6.66660156 C9.07949219,6.66660156 8.33339844,7.41269531 8.33339844,8.33320312 C8.33339844,9.25371094 9.07949219,10 10,10 L11.6666016,10 C12.5871094,10 13.3332031,9.25390625 13.3332031,8.33339844 C13.3332031,7.41289062 12.5871094,6.66660156 11.6666016,6.66660156 Z" id="Path" fill="#000000"></path>
                <path d="M20,6.66660156 L18.3333984,6.66660156 C17.4128906,6.66660156 16.6667969,7.41269531 16.6667969,8.33320313 C16.6667969,9.25371094 17.4130859,9.99980469 18.3333984,9.99980469 L20,9.99980469 C20.9205078,9.99980469 21.6666016,9.25371094 21.6666016,8.33320313 C21.6666016,7.41269531 20.9205078,6.66660156 20,6.66660156 Z" id="Path" fill="#000000"></path>
                <path d="M28.3333984,6.66660156 L26.6667969,6.66660156 C25.7462891,6.66660156 25.0001953,7.41269531 25.0001953,8.33320313 C25.0001953,9.25371094 25.7462891,9.99980469 26.6667969,9.99980469 L28.3333984,9.99980469 C29.2539063,9.99980469 30,9.25371094 30,8.33320313 C30,7.41269531 29.2537109,6.66660156 28.3333984,6.66660156 Z" id="Path" fill="#000000"></path>
                <path d="M80,6.66660156 L35,6.66660156 C34.0794922,6.66660156 33.3333984,7.41269531 33.3333984,8.33320313 C33.3333984,9.25371094 34.0794922,9.99980469 35,9.99980469 L80,9.99980469 C80.9205078,9.99980469 81.6666016,9.25371094 81.6666016,8.33320313 C81.6666016,7.41269531 80.9205078,6.66660156 80,6.66660156 Z" id="Path" fill="#000000"></path>
                <path d="M96.6666016,60 L95,60 L95,51.6666016 C94.9986328,47 93.209375,42.5111328 90,39.1232422 L90,8.33339844 C89.9945312,3.73320313 86.2667969,0.00546875 81.6666016,0 L8.33339844,0 C3.73320313,0.00546875 0.00546875,3.73320313 0,8.33339844 L0,75 C0.00546875,79.6 3.73320313,83.3277344 8.33339844,83.3333984 L53.3333984,83.3333984 L53.3333984,88.3333984 C53.3408203,94.7736328 58.5597656,99.9927734 65,100 L88.3333984,100 C94.7736328,99.9925781 99.9927734,94.7736328 100,88.3333984 L100,63.3333984 C100,61.4923828 98.5076172,60 96.6666016,60 Z M91.6666016,51.6666016 L91.6666016,60 L61.6666016,60 L61.6666016,51.6666016 C61.6666016,43.3824219 68.3824219,36.6666016 76.6666016,36.6666016 C84.9507813,36.6666016 91.6666016,43.3824219 91.6666016,51.6666016 Z M3.33339844,8.33339844 C3.33339844,5.57207031 5.57207031,3.33339844 8.33339844,3.33339844 L81.6667969,3.33339844 C84.428125,3.33339844 86.6667969,5.57207031 86.6667969,8.33339844 L86.6667969,13.3333984 L3.33339844,13.3333984 L3.33339844,8.33339844 Z M53.3333984,63.3333984 L53.3333984,80 L8.33339844,80 C5.57207031,80 3.33339844,77.7613281 3.33339844,75 L3.33339844,16.6666016 L86.6667969,16.6666016 L86.6667969,36.3199219 C81.0361328,32.6367188 73.8390625,32.3382813 67.9228516,35.5427734 C62.0066406,38.7472656 58.3246094,44.9382812 58.3333984,51.6666016 L58.3333984,60 L56.6667969,60 C54.8257813,60 53.3333984,61.4923828 53.3333984,63.3333984 Z M96.6667969,66.6666016 L91.6666016,66.6666016 C90.7460937,66.6666016 90,67.4126953 90,68.3332031 C90,69.2537109 90.7460937,69.9998047 91.6666016,69.9998047 L96.6667969,69.9998047 L96.6667969,73.3332031 L91.6666016,73.3332031 C90.7460937,73.3332031 90,74.0792969 90,74.9998047 C90,75.9203125 90.7460937,76.6664063 91.6666016,76.6664063 L96.6667969,76.6664063 L96.6667969,80 L91.6666016,80 C90.7460937,80 90,80.7460938 90,81.6666016 C90,82.5871094 90.7460937,83.3332031 91.6666016,83.3332031 L96.6667969,83.3332031 L96.6667969,86.6666016 L91.6666016,86.6666016 C90.7460937,86.6666016 90,87.4128906 90,88.3332031 C90,89.2537109 90.7460937,89.9998047 91.6666016,89.9998047 L96.5,89.9998047 C95.7025391,93.8771484 92.2917969,96.6615234 88.3333984,96.6664062 L65,96.6664062 C61.0416016,96.6613281 57.6306641,93.8771484 56.8333984,89.9998047 L61.6667969,89.9998047 C62.5873047,89.9998047 63.3333984,89.2535156 63.3333984,88.3332031 C63.3333984,87.4126953 62.5873047,86.6666016 61.6667969,86.6666016 L56.6667969,86.6666016 L56.6667969,83.3332031 L61.6667969,83.3332031 C62.5873047,83.3332031 63.3333984,82.5871094 63.3333984,81.6666016 C63.3333984,80.7460938 62.5873047,80 61.6667969,80 L56.6667969,80 L56.6667969,76.6666016 L61.6667969,76.6666016 C62.5873047,76.6666016 63.3333984,75.9205078 63.3333984,75 C63.3333984,74.0794922 62.5873047,73.3333984 61.6667969,73.3333984 L56.6667969,73.3333984 L56.6667969,70 L61.6667969,70 C62.5873047,70 63.3333984,69.2539062 63.3333984,68.3333984 C63.3333984,67.4128906 62.5873047,66.6667969 61.6667969,66.6667969 L56.6667969,66.6667969 L56.6667969,63.3333984 L96.6667969,63.3333984 L96.6667969,66.6666016 L96.6667969,66.6666016 Z" id="Shape" fill="#000000"></path>
                <path d="M75,81.3599609 L75,85 C75,85.9205078 75.7462891,86.6665922 76.6666016,86.6665922 C77.5871094,86.6665922 78.3332031,85.9205078 78.3332031,85 L78.3332031,81.3599609 C80.6275391,80.5519531 82.0042969,78.2068359 81.5921875,75.8095703 C81.1800781,73.4123047 79.0990234,71.6619141 76.6666016,71.6665922 C74.2341797,71.6619141 72.153125,73.4125 71.7410156,75.8095703 C71.3289063,78.2068359 72.7056641,80.5519531 75,81.3599609 Z M76.6666016,75 C77.5871094,75 78.3332031,75.7462891 78.3332031,76.6666016 C78.3332031,77.5871094 77.5869141,78.3332031 76.6666016,78.3332031 C75.7460938,78.3332031 75,77.5869141 75,76.6666016 C75,75.7462891 75.7462891,75 76.6666016,75 Z" id="Shape" fill="#000000"></path>
                <path d="M28.3333984,33.3333984 C27.4128906,33.3333984 26.6667969,34.0794922 26.6667969,35 L26.6667969,40 L13.3333984,40 L13.3333984,26.6666016 L20,26.6666016 C20.9205078,26.6666016 21.6666016,25.9205078 21.6666016,25 C21.6666016,24.0794922 20.9205078,23.3333984 20,23.3333984 L13.3333984,23.3333984 C11.4923828,23.3333984 10,24.8257813 10,26.6667969 L10,40 C10,41.8410156 11.4923828,43.3333984 13.3333984,43.3333984 L26.6667969,43.3333984 C28.5078125,43.3333984 30.0001953,41.8410156 30.0001953,40 L30.0001953,35 C30.0001953,34.0794922 29.2537109,33.3333984 28.3333984,33.3333984 Z" id="Path" fill="#000000"></path>
                <path d="M17.8449219,30.4882812 C17.1910156,29.8566406 16.1513672,29.865625 15.5085937,30.5085938 C14.865625,31.1515625 14.8566406,32.1910156 15.4882812,32.8449219 L18.8216797,36.1783203 C19.1341797,36.4908203 19.5580078,36.6666016 20,36.6666016 L20.075,36.6666016 C20.5425781,36.6457031 20.9798828,36.4292969 21.2800781,36.0699219 L29.6134766,26.0699219 C29.9951172,25.6126953 30.1039062,24.9865234 29.8986328,24.4271484 C29.6933594,23.8679688 29.2054687,23.4607422 28.6185547,23.3587891 C28.0316406,23.2568359 27.4349609,23.4757813 27.0533203,23.9332031 L19.8867187,32.5332031 L17.8449219,30.4882812 Z" id="Path" fill="#00D7B5"></path>
                <path d="M28.3333984,61.6666016 C27.4128906,61.6666016 26.6667969,62.4126953 26.6667969,63.3332031 L26.6667969,68.3332031 L13.3333984,68.3332031 L13.3333984,55 L20,55 C20.9205078,55 21.6666016,54.2537109 21.6666016,53.3333984 C21.6666016,52.4128906 20.9205078,51.6667969 20,51.6667969 L13.3333984,51.6667969 C11.4923828,51.6667969 10,53.1591797 10,55.0001953 L10,68.3335938 C10,70.1746094 11.4923828,71.6669922 13.3333984,71.6669922 L26.6667969,71.6669922 C28.5078125,71.6669922 30.0001953,70.1746094 30.0001953,68.3335938 L30.0001953,63.3335937 C30.0001953,62.4128906 29.2537109,61.6666016 28.3333984,61.6666016 Z" id="Path" fill="#000000"></path>
                <path d="M17.8449219,58.8216797 C17.1910156,58.1900391 16.1513672,58.1990234 15.5085937,58.8419922 C14.865625,59.4849609 14.8566406,60.5244141 15.4882812,61.1783203 L18.8216797,64.5117188 C19.1341797,64.8242188 19.5580078,65 20,65 L20.075,65 C20.5425781,64.9791016 20.9798828,64.7626953 21.2800781,64.4033203 L29.6134766,54.4033203 C29.9951172,53.9460938 30.1039062,53.3199219 29.8986328,52.7607422 C29.6933594,52.2015625 29.2054687,51.7943359 28.6185547,51.6923828 C28.0316406,51.5904297 27.4349609,51.809375 27.0533203,52.2667969 L19.8867187,60.8667969 L17.8449219,58.8216797 Z" id="Path" fill="#00D7B5"></path>
                <path d="M36.6666016,28.3333984 L50,28.3333984 C50.9205078,28.3333984 51.6666016,27.5873047 51.6666016,26.6667969 C51.6666016,25.7462891 50.9205078,25 50,25 L36.6666016,25 C35.7460938,25 35,25.7460938 35,26.6666016 C35,27.5871094 35.7462891,28.3333984 36.6666016,28.3333984 Z" id="Path" fill="#000000"></path>
                <path d="M60,35 C60,34.0794922 59.2539062,33.3333984 58.3333984,33.3333984 L36.6666016,33.3333984 C35.7460938,33.3333984 35,34.0794922 35,35 C35,35.9205078 35.7460938,36.6666016 36.6666016,36.6666016 L58.3332031,36.6666016 C59.2539062,36.6666016 60,35.9205078 60,35 Z" id="Path" fill="#000000"></path>
                <path d="M50,53.3333984 L36.6666016,53.3333984 C35.7460938,53.3333984 35,54.0796875 35,55 C35,55.9203125 35.7460938,56.6666016 36.6666016,56.6666016 L50,56.6666016 C50.9205078,56.6666016 51.6666016,55.9205078 51.6666016,55 C51.6666016,54.0794922 50.9205078,53.3333984 50,53.3333984 Z" id="Path" fill="#000000"></path>
                <path d="M48.3333984,61.6666016 L36.6667969,61.6666016 C35.7462891,61.6666016 35.0001953,62.4126953 35.0001953,63.3332031 C35.0001953,64.2537109 35.7462891,64.9998047 36.6667969,64.9998047 L48.3333984,64.9998047 C49.2539062,64.9998047 50,64.2537109 50,63.3332031 C50,62.4126953 49.2539062,61.6666016 48.3333984,61.6666016 Z" id="Path" fill="#000000"></path>
            </g>
        </g>
    </g>
</svg>